<svg width="211" height="275" viewBox="0 0 211 275" fill="none" xmlns="http://www.w3.org/2000/svg">
<g style="mix-blend-mode:luminosity">
<path d="M185.562 39.8277C174.1 31.1369 161.133 27.9595 146.66 30.2953C137.145 31.8297 128.763 36.0148 121.515 42.8506C115.389 46.4574 110.305 51.2093 106.263 57.1062C106.167 57.2479 106.038 57.3639 105.887 57.4441C105.735 57.5243 105.567 57.5662 105.396 57.5662C105.225 57.5662 105.056 57.5243 104.905 57.4441C104.754 57.3639 104.624 57.2479 104.528 57.1062C101.07 52.0223 96.828 47.6425 91.8013 43.967C84.5648 36.5586 75.7996 32.0071 65.5058 30.3125C50.6891 27.8507 37.5556 31.1541 26.1053 40.2227C19.8363 34.6064 14.0138 26.1045 13.4814 17.3794C13.4356 16.6809 13.7333 16.4634 14.3745 16.7267C26.5347 21.6217 39.1758 19.4233 51.3532 13.9787C60.2844 10.0112 69.0611 6.04362 78.4732 3.60471C98.9921 -1.68532 118.841 -1.15288 138.02 5.20203C143.688 7.07988 148.921 9.16956 153.719 11.4711C160.818 14.8718 166.171 17.0473 169.778 17.9977C178.812 20.3679 187.423 20.013 195.61 16.9329C195.921 16.8123 196.26 16.7821 196.587 16.8459C196.915 16.9096 197.218 17.0647 197.463 17.2935C197.708 17.5223 197.885 17.8157 197.973 18.1405C198.061 18.4653 198.058 18.8085 197.963 19.1313C195.581 27.0893 191.447 33.9881 185.562 39.8277Z" fill="#727E8B"/>
<path d="M91.8013 43.9669C98.2592 51.4669 102.742 60.0088 105.25 69.5927C105.318 69.8446 105.295 70.0793 105.181 70.2969C105.147 70.3541 105.135 70.4171 105.147 70.4858C105.25 71.2644 105.467 71.3045 105.799 70.606C110.608 60.3008 112.79 52.3485 121.515 42.8505C128.763 36.0147 137.144 31.8296 146.66 30.2953C161.133 27.9594 174.1 31.1369 185.562 39.8277C192.758 46.1826 198.495 54.4439 201.123 63.7702C202.279 67.858 204.627 71.2644 208.165 73.9896C210.672 75.9304 211.428 79.0563 210.724 81.9933C210.529 82.8063 210.06 83.4075 209.316 83.7968L204.043 86.6307C203.686 86.822 203.379 87.094 203.147 87.425C202.914 87.7561 202.762 88.1369 202.703 88.5372C201.031 99.8501 194.905 109.652 184.325 117.942C183.865 118.301 183.492 118.759 183.233 119.282C182.974 119.806 182.837 120.381 182.831 120.964C182.453 152.413 175.222 184.84 159.352 211.651C143.396 238.616 113.734 260.429 82.0284 242.704C71.1163 236.601 61.687 227.212 53.7405 214.536C35.6032 185.613 28.8877 154.611 28.4755 119.298C28.464 118.76 28.2522 118.325 27.84 117.993C18.0729 110.035 11.718 100.056 8.77523 88.0563C8.64668 87.5446 8.35679 87.0879 7.94846 86.7538C7.54013 86.4197 7.03507 86.226 6.50806 86.2013C3.88022 86.0983 0.737125 85.0334 0.53102 81.8388C0.359266 79.3197 0.67987 77.2701 1.49284 75.69C1.76765 75.1747 2.17414 74.7911 2.71231 74.5392L8.2428 72.0316C8.79241 71.7797 9.11302 71.356 9.20462 70.7606C11.1626 58.5088 16.7962 48.3295 26.1052 40.2227C37.5555 31.1541 50.689 27.8507 65.5057 30.3125C75.7995 32.0071 84.5647 36.5586 91.8013 43.9669ZM95.4596 78.4724C95.4596 68.3052 91.4207 58.5544 84.2314 51.3651C77.0421 44.1757 67.2913 40.1368 57.1241 40.1368C46.9568 40.1368 37.206 44.1757 30.0167 51.3651C22.8274 58.5544 18.7885 68.3052 18.7885 78.4724C18.7885 88.6396 22.8274 98.3904 30.0167 105.58C37.206 112.769 46.9568 116.808 57.1241 116.808C67.2913 116.808 77.0421 112.769 84.2314 105.58C91.4207 98.3904 95.4596 88.6396 95.4596 78.4724ZM193.497 78.4552C193.497 68.3062 189.465 58.5729 182.289 51.3964C175.113 44.22 165.379 40.1883 155.23 40.1883C145.081 40.1883 135.348 44.22 128.171 51.3964C120.995 58.5729 116.963 68.3062 116.963 78.4552C116.963 83.4805 117.953 88.4565 119.876 93.0993C121.799 97.742 124.618 101.961 128.171 105.514C131.725 109.067 135.943 111.886 140.586 113.809C145.229 115.732 150.205 116.722 155.23 116.722C160.255 116.722 165.231 115.732 169.874 113.809C174.517 111.886 178.736 109.067 182.289 105.514C185.842 101.961 188.661 97.742 190.584 93.0993C192.507 88.4565 193.497 83.4805 193.497 78.4552ZM13.4791 77.5889C13.7407 77.3852 13.9488 77.118 14.0913 76.8025C14.2339 76.4869 14.3082 76.1293 14.31 75.7499C14.3118 75.3706 14.2411 74.9769 14.1018 74.5915C13.9626 74.2061 13.7576 73.8364 13.4985 73.5035C13.2394 73.1707 12.9313 72.8813 12.5918 72.6517C12.2523 72.4222 11.888 72.257 11.5198 72.1657C11.1516 72.0743 10.7867 72.0586 10.4458 72.1195C10.1049 72.1803 9.79481 72.3164 9.53318 72.5201C9.27154 72.7237 9.0635 72.9909 8.92092 73.3065C8.77835 73.622 8.70402 73.9797 8.70222 74.359C8.70042 74.7384 8.77117 75.132 8.91041 75.5175C9.04966 75.9029 9.25467 76.2726 9.51376 76.6054C9.77286 76.9382 10.081 77.2277 10.4205 77.4572C10.76 77.6868 11.1242 77.852 11.4924 77.9433C11.8606 78.0346 12.2256 78.0503 12.5665 77.9895C12.9073 77.9287 13.2174 77.7926 13.4791 77.5889ZM202.171 74.7453C202.171 74.0074 201.877 73.2996 201.356 72.7778C200.834 72.256 200.126 71.9629 199.388 71.9629C198.65 71.9629 197.943 72.256 197.421 72.7778C196.899 73.2996 196.606 74.0074 196.606 74.7453C196.606 75.4833 196.899 76.191 197.421 76.7128C197.943 77.2346 198.65 77.5277 199.388 77.5277C200.126 77.5277 200.834 77.2346 201.356 76.7128C201.877 76.191 202.171 75.4833 202.171 74.7453ZM105.301 81.7701H105.954C106.137 81.7586 106.234 81.6556 106.246 81.4609L106.297 74.522C106.309 74.1556 106.131 73.9724 105.765 73.9724H105.164C104.877 73.9724 104.734 74.1213 104.734 74.419L104.889 81.375C104.889 81.6498 105.026 81.7815 105.301 81.7701ZM96.5417 107.379C89.6372 116.516 80.8319 122.504 70.1259 125.344C66.748 126.237 63.3416 126.993 59.9065 127.611C59.0821 127.76 59.0592 127.983 59.8378 128.281C68.7862 131.716 77.2709 135.564 87.1296 137.178C91.3662 137.876 95.6486 138.661 99.9768 139.531C103.389 140.23 107.225 140.281 111.484 139.686C125.282 137.739 138.593 133.96 151.417 128.35C152.7 127.789 152.648 127.44 151.263 127.302C142.961 126.42 135.043 123.712 127.509 119.178C122.305 116.069 118.767 111.312 115.005 106.382C114.272 102.764 113.689 100.331 113.253 99.0829C111.759 94.7375 106.469 87.4208 101.763 92.436C97.7669 96.6955 96.0264 101.676 96.5417 107.379Z" fill="#495057"/>
<path d="M25.1262 178.262C30.9144 196.261 39.4334 214.862 49.3093 230.63C49.4925 230.904 49.4237 231.093 49.1031 231.196C48.9543 231.242 48.8111 231.248 48.6737 231.213C48.5249 231.179 48.3989 231.105 48.2959 230.99C44.4715 226.914 40.6643 222.861 36.8742 218.83C24.0843 205.216 14.3916 190.502 7.7962 174.689C1.11496 158.664 1.97373 136.714 17.8095 125.482C17.8728 125.441 17.946 125.418 18.0213 125.416C18.0966 125.414 18.171 125.432 18.2365 125.469C18.302 125.507 18.356 125.561 18.3928 125.627C18.4295 125.692 18.4476 125.767 18.445 125.842C17.403 143.705 19.6301 161.178 25.1262 178.262Z" fill="#727E8B"/>
<path d="M162.822 229.17C170.138 216.838 176.27 203.75 181.56 190.542C189.736 170.103 194.751 147.432 192.57 126.186C192.553 126.033 192.581 125.879 192.651 125.743C192.72 125.606 192.828 125.492 192.961 125.416C193.094 125.339 193.246 125.303 193.399 125.312C193.553 125.32 193.7 125.373 193.823 125.464C208.852 136.371 209.882 156.947 203.613 173.504C195.249 195.609 180.289 212.372 163.904 229.702C163.663 229.954 163.383 230.017 163.062 229.891C162.707 229.742 162.627 229.502 162.822 229.17Z" fill="#727E8B"/>
<path d="M131.082 272.143C129.547 270.368 128.265 268.484 127.234 266.492C125.666 263.48 126.003 260.709 128.248 258.179L130.601 255.534C131.837 254.137 133.028 254.177 134.173 255.654C138.009 260.589 141.868 265.765 145.749 271.181C147.879 274.152 151.383 274.513 154.818 274.307C164.104 273.746 181.062 273.7 205.692 274.169C205.902 274.173 206.11 274.22 206.302 274.307C206.493 274.395 206.665 274.52 206.807 274.676C206.948 274.832 207.056 275.015 207.125 275.215C207.193 275.414 207.219 275.625 207.203 275.835L207.117 276.866C207.091 277.217 206.931 277.545 206.67 277.784C206.409 278.023 206.065 278.155 205.709 278.154H7.34972C5.99858 278.154 5.09401 277.518 4.636 276.247C4.56729 276.064 4.5444 275.875 4.56731 275.681C4.64746 274.81 5.12265 274.358 5.99287 274.324C22.1263 273.614 38.9983 273.614 56.6089 274.324C60.439 274.478 64.063 273.156 66.2958 270.013C69.582 265.421 73.0343 260.761 76.6526 256.032C77.9465 254.349 79.2804 254.32 80.6545 255.946L83.935 259.793C85.7327 261.912 85.8357 264.11 84.2441 266.389L79.9674 272.503C79.5094 273.167 79.6755 273.591 80.4655 273.774C86.8033 275.268 91.3719 273.345 94.8757 267.797C97.4635 263.698 100.544 259.501 104.116 255.208C104.284 255.006 104.494 254.843 104.731 254.732C104.969 254.62 105.228 254.563 105.49 254.563C105.752 254.563 106.012 254.62 106.249 254.732C106.487 254.843 106.697 255.006 106.864 255.208C110.414 259.456 113.814 264.036 117.066 268.948C120.158 273.62 125.19 275.183 130.601 273.723C131.585 273.459 131.746 272.933 131.082 272.143Z" fill="#727E8B"/>
<path d="M115.005 106.383C114.261 108.913 113.551 111.318 112.876 113.596C111.799 117.26 109.452 119.556 105.834 120.484C105.273 120.632 104.729 120.587 104.202 120.346C99.3814 118.228 96.828 113.905 96.5418 107.379C96.0265 101.677 97.7669 96.6956 101.763 92.4361C106.469 87.4209 111.759 94.7376 113.253 99.083C113.689 100.331 114.273 102.764 115.005 106.383Z" fill="#727E8B"/>
<path d="M92.7802 78.9362C92.7802 87.4362 89.4036 95.5881 83.3932 101.598C77.3828 107.609 69.2309 110.986 60.7309 110.986C52.2309 110.986 44.079 107.609 38.0686 101.598C32.0581 95.5881 28.6815 87.4362 28.6815 78.9362C28.6815 70.4362 32.0581 62.2843 38.0686 56.2739C44.079 50.2634 52.2309 46.8868 60.7309 46.8868C69.2309 46.8868 77.3828 50.2634 83.3932 56.2739C89.4036 62.2843 92.7802 70.4362 92.7802 78.9362ZM86.2192 72.4439C86.2192 67.3785 84.207 62.5206 80.6252 58.9388C77.0435 55.357 72.1855 53.3448 67.1201 53.3448C64.612 53.3448 62.1284 53.8388 59.8112 54.7986C57.494 55.7585 55.3886 57.1653 53.615 58.9388C51.8415 60.7123 50.4347 62.8178 49.4749 65.135C48.5151 67.4522 48.0211 69.9357 48.0211 72.4439C48.0211 74.952 48.5151 77.4356 49.4749 79.7528C50.4347 82.07 51.8415 84.1755 53.615 85.949C55.3886 87.7225 57.494 89.1293 59.8112 90.0891C62.1284 91.0489 64.612 91.543 67.1201 91.543C72.1855 91.543 77.0435 89.5307 80.6252 85.949C84.207 82.3672 86.2192 77.5093 86.2192 72.4439Z" fill="#727E8B"/>
<path d="M182.574 78.9018C182.574 87.411 179.193 95.5716 173.176 101.588C167.16 107.605 158.999 110.986 150.49 110.986C141.981 110.986 133.82 107.605 127.803 101.588C121.786 95.5716 118.406 87.411 118.406 78.9018C118.406 70.3927 121.786 62.2321 127.803 56.2152C133.82 50.1984 141.981 46.8181 150.49 46.8181C158.999 46.8181 167.16 50.1984 173.176 56.2152C179.193 62.2321 182.574 70.3927 182.574 78.9018ZM163.097 72.4611C163.097 67.3957 161.084 62.5377 157.503 58.9559C153.921 55.3742 149.063 53.362 143.998 53.362C138.932 53.362 134.074 55.3742 130.492 58.9559C126.911 62.5377 124.898 67.3957 124.898 72.4611C124.898 77.5264 126.911 82.3844 130.492 85.9661C134.074 89.5479 138.932 91.5601 143.998 91.5601C149.063 91.5601 153.921 89.5479 157.503 85.9661C161.084 82.3844 163.097 77.5264 163.097 72.4611Z" fill="#727E8B"/>
<path d="M73.5095 62.1729C69.1641 65.9343 73.2004 73.2683 79.0915 70.6061C79.6984 70.3198 80.0305 70.5145 80.0877 71.19C80.477 75.793 79.0228 79.4171 75.7251 82.0621C69.8511 86.7853 59.1165 86.2872 55.939 78.3007C51.233 66.4324 61.126 55.818 73.3377 61.0393C74.0019 61.3256 74.0591 61.7035 73.5095 62.1729Z" fill="#495057"/>
<path d="M150.009 62.5508C146.316 67.5832 150.576 73.2168 156.003 70.4343C156.116 70.3753 156.241 70.3462 156.368 70.3499C156.495 70.3537 156.619 70.3901 156.728 70.4557C156.837 70.5214 156.927 70.6139 156.989 70.7245C157.052 70.8351 157.085 70.96 157.085 71.087C157.205 79.4515 151.709 85.3598 143.259 85.0335C123.576 84.2777 130.721 52.3143 149.579 60.9535C149.724 61.0211 149.851 61.1192 149.954 61.2408C150.056 61.3625 150.13 61.5046 150.171 61.6572C150.212 61.8098 150.219 61.969 150.191 62.1234C150.163 62.2779 150.101 62.4238 150.009 62.5508Z" fill="#495057"/>
</g>
</svg>
