<svg width="320" height="77" viewBox="0 0 320 77" fill="none" xmlns="http://www.w3.org/2000/svg">
<g clip-path="url(#clip0_99107_104)">
<path d="M6.51152 55.3693V27.0271H30.8705V33.7296H15.5121V48.6667H31.062V55.3693H6.51152ZM10.8778 44.2622V37.5596H28.8406V44.2622H10.8778ZM34.9312 55.3693V34.3041H42.17L42.7062 36.1425H43.0892C43.919 35.4531 44.9148 34.9169 46.0766 34.5339C47.2384 34.1509 48.4895 33.9594 49.83 33.9594C51.5408 33.9594 53.06 34.2977 54.3878 34.9744C55.7155 35.6382 56.756 36.6915 57.5093 38.1341C58.2625 39.564 58.6391 41.428 58.6391 43.726V55.3693H49.7534V44.2239C49.7534 43.1132 49.5364 42.3535 49.1023 41.945C48.6683 41.5237 48.0299 41.3131 47.1873 41.3131C46.7405 41.3131 46.3064 41.3641 45.8851 41.4663C45.4766 41.5684 45.0936 41.7152 44.7361 41.9067C44.3786 42.0854 44.0722 42.2961 43.8169 42.5387V55.3693H34.9312ZM75.8913 55.7906C72.8656 55.7906 70.3186 55.3629 68.2504 54.5075C66.1949 53.6521 64.6374 52.4138 63.5778 50.7924C62.5181 49.171 61.9883 47.2113 61.9883 44.9133C61.9883 42.6153 62.5309 40.6492 63.6161 39.015C64.7012 37.3809 66.3035 36.1298 68.4227 35.2616C70.542 34.3935 73.1592 33.9594 76.2743 33.9594C77.4233 33.9594 78.4893 34.0105 79.4724 34.1126C80.4682 34.202 81.4065 34.3424 82.2874 34.5339V41.1982C81.3555 41.0577 80.4937 40.9556 79.7022 40.8918C78.9106 40.8152 78.0744 40.7769 77.1935 40.7769C75.7253 40.7769 74.538 40.9364 73.6316 41.2556C72.7251 41.5748 72.0613 42.0471 71.64 42.6727C71.2314 43.2855 71.0272 44.0324 71.0272 44.9133C71.0272 45.7814 71.2442 46.5219 71.6783 47.1347C72.1123 47.7347 72.7571 48.1943 73.6124 48.5135C74.4678 48.8199 75.5338 48.9731 76.8105 48.9731C77.6786 48.9731 78.5085 48.922 79.3 48.8199C80.1043 48.7178 81.1001 48.5518 82.2874 48.322V54.9863C81.5087 55.2161 80.5703 55.4076 79.4724 55.5608C78.3744 55.714 77.1807 55.7906 75.8913 55.7906ZM97.3335 55.7906C94.7674 55.7906 92.5268 55.3501 90.6118 54.4692C88.7095 53.5883 87.2286 52.3308 86.1689 50.6966C85.1093 49.0625 84.5795 47.1092 84.5795 44.8367C84.5795 42.5642 85.0774 40.6173 86.0732 38.9959C87.069 37.3745 88.518 36.1298 90.4203 35.2616C92.3225 34.3935 94.6269 33.9594 97.3335 33.9594C100.04 33.9594 102.344 34.3935 104.247 35.2616C106.149 36.1298 107.598 37.3745 108.594 38.9959C109.59 40.6173 110.087 42.5642 110.087 44.8367C110.087 47.1092 109.558 49.0625 108.498 50.6966C107.451 52.3308 105.97 53.5883 104.055 54.4692C102.14 55.3501 99.8996 55.7906 97.3335 55.7906ZM97.3335 49.1263C98.2016 49.1263 98.9293 48.9731 99.5166 48.6667C100.117 48.3603 100.563 47.8943 100.857 47.2688C101.164 46.6304 101.317 45.8197 101.317 44.8367C101.317 43.8536 101.164 43.0557 100.857 42.4429C100.563 41.8173 100.117 41.3577 99.5166 41.0641C98.9293 40.7705 98.2016 40.6237 97.3335 40.6237C96.4653 40.6237 95.7312 40.7705 95.1312 41.0641C94.5439 41.3577 94.0971 41.8173 93.7907 42.4429C93.4971 43.0557 93.3502 43.8536 93.3502 44.8367C93.3502 45.8197 93.4971 46.6304 93.7907 47.2688C94.0971 47.8943 94.5439 48.3603 95.1312 48.6667C95.7312 48.9731 96.4653 49.1263 97.3335 49.1263ZM123.457 55.714C121.606 55.714 119.901 55.3565 118.344 54.6416C116.786 53.9266 115.535 52.8031 114.59 51.2711C113.658 49.7391 113.192 47.7475 113.192 45.2963C113.192 42.9089 113.716 40.8662 114.763 39.1682C115.822 37.4575 117.316 36.1489 119.244 35.2425C121.172 34.336 123.457 33.8828 126.1 33.8828C126.674 33.8828 127.242 33.902 127.804 33.9403C128.366 33.9658 128.883 33.9977 129.355 34.036V24.4226H138.241V55.3693H130.849L130.389 53.3393H130.006C129.228 54.0415 128.289 54.616 127.191 55.0629C126.106 55.4969 124.861 55.714 123.457 55.714ZM125.946 48.7433C126.547 48.7433 127.147 48.6731 127.747 48.5327C128.359 48.3795 128.896 48.1433 129.355 47.8241V40.662C129.011 40.5981 128.615 40.5471 128.168 40.5088C127.721 40.4577 127.249 40.4322 126.751 40.4322C125.129 40.4322 123.923 40.796 123.131 41.5237C122.353 42.2386 121.963 43.3047 121.963 44.7218C121.963 45.6921 122.129 46.4708 122.461 47.0581C122.793 47.6454 123.253 48.0731 123.84 48.3412C124.44 48.6093 125.142 48.7433 125.946 48.7433ZM155.978 55.7906C152.672 55.7906 149.965 55.4076 147.859 54.6416C145.765 53.8628 144.22 52.6691 143.224 51.0605C142.229 49.4519 141.731 47.4028 141.731 44.9133C141.731 42.7046 142.184 40.7832 143.09 39.1491C144.01 37.5022 145.356 36.2255 147.131 35.3191C148.906 34.4126 151.089 33.9594 153.68 33.9594C156.132 33.9594 158.181 34.419 159.828 35.3382C161.474 36.2447 162.713 37.5405 163.543 39.2257C164.373 40.9109 164.787 42.9089 164.787 45.2197V47.173H145.637V42.577H157.932L156.629 42.9217C156.629 42.0663 156.521 41.3641 156.304 40.8152C156.087 40.2534 155.749 39.8385 155.289 39.5704C154.829 39.3023 154.242 39.1682 153.527 39.1682C152.812 39.1682 152.225 39.3023 151.765 39.5704C151.306 39.8257 150.967 40.2279 150.75 40.7769C150.533 41.3258 150.425 42.028 150.425 42.8834V46.2538C150.425 47.0709 150.584 47.722 150.904 48.2071C151.236 48.6922 151.899 49.0433 152.895 49.2604C153.891 49.4774 155.391 49.5859 157.395 49.5859C158.276 49.5859 159.247 49.5412 160.306 49.4519C161.366 49.3625 162.375 49.254 163.332 49.1263V55.2161C161.979 55.4459 160.689 55.5991 159.464 55.6757C158.238 55.7523 157.076 55.7906 155.978 55.7906ZM168.085 55.3693V34.3041H175.285L175.974 36.6787H176.357C176.957 35.7595 177.743 35.0765 178.713 34.6297C179.683 34.1828 180.8 33.9594 182.064 33.9594C182.409 33.9594 182.754 33.9786 183.098 34.0169C183.443 34.0424 183.737 34.0743 183.979 34.1126V41.8876C183.596 41.811 183.181 41.7599 182.734 41.7344C182.3 41.7088 181.898 41.6961 181.528 41.6961C180.966 41.6961 180.392 41.7471 179.804 41.8493C179.23 41.9514 178.694 42.1046 178.196 42.3089C177.698 42.5131 177.289 42.7685 176.97 43.0749V55.3693H168.085ZM247.193 55.3693L241.256 34.3041H249.759L252.823 47.0964H252.517L255.964 34.3041H265.807L269.177 47.1347H268.679L272.012 34.3041H280.131L274.233 55.3693H264.39L260.636 41.428H260.943L257.036 55.3693H247.193ZM283.509 55.3693V24.4226H292.395V55.3693H283.509Z" fill="#495057"/>
<path d="M235.489 32.1523C232.384 29.7981 228.871 28.9373 224.951 29.5701C222.373 29.9857 220.103 31.1194 218.139 32.9712C216.48 33.9483 215.102 35.2355 214.007 36.833C213.981 36.8713 213.946 36.9028 213.906 36.9245C213.865 36.9462 213.819 36.9576 213.773 36.9576C213.726 36.9576 213.68 36.9462 213.64 36.9245C213.599 36.9028 213.564 36.8713 213.538 36.833C212.601 35.4558 211.452 34.2693 210.09 33.2736C208.13 31.2668 205.755 30.0338 202.967 29.5747C198.953 28.9078 195.395 29.8027 192.293 32.2593C190.595 30.7379 189.018 28.4348 188.874 26.0712C188.861 25.882 188.942 25.8231 189.115 25.8944C192.41 27.2205 195.834 26.6249 199.133 25.15C201.552 24.0752 203.93 23.0005 206.479 22.3398C212.038 20.9067 217.415 21.051 222.61 22.7725C224.146 23.2812 225.563 23.8473 226.863 24.4707C228.786 25.392 230.236 25.9813 231.213 26.2387C233.661 26.8808 235.993 26.7847 238.211 25.9503C238.295 25.9176 238.387 25.9094 238.476 25.9267C238.564 25.944 238.647 25.986 238.713 26.048C238.779 26.1099 238.827 26.1894 238.851 26.2774C238.875 26.3654 238.874 26.4584 238.848 26.5458C238.203 28.7016 237.083 30.5704 235.489 32.1523Z" fill="#A39077"/>
<path d="M210.09 33.2736C211.839 35.3053 213.054 37.6193 213.733 40.2155C213.752 40.2837 213.745 40.3473 213.714 40.4062C213.705 40.4217 213.702 40.4388 213.705 40.4574C213.733 40.6683 213.792 40.6792 213.882 40.49C215.185 37.6984 215.776 35.5441 218.139 32.9712C220.103 31.1194 222.373 29.9857 224.951 29.5701C228.871 28.9373 232.384 29.7981 235.489 32.1523C237.439 33.8738 238.993 36.1118 239.704 38.6382C240.018 39.7455 240.654 40.6683 241.612 41.4066C242.291 41.9323 242.496 42.7791 242.305 43.5747C242.253 43.7949 242.125 43.9578 241.924 44.0633L240.495 44.831C240.399 44.8828 240.316 44.9565 240.253 45.0461C240.19 45.1358 240.148 45.239 240.132 45.3474C239.68 48.412 238.02 51.0671 235.154 53.3128C235.029 53.4101 234.928 53.5343 234.858 53.676C234.788 53.8178 234.751 53.9736 234.749 54.1317C234.647 62.6508 232.688 71.4351 228.389 78.698C224.067 86.0028 216.031 91.9117 207.443 87.1101C204.487 85.4569 201.932 82.9134 199.78 79.4797C194.866 71.6445 193.047 63.2464 192.935 53.6804C192.932 53.5346 192.875 53.4168 192.763 53.3268C190.117 51.171 188.396 48.4678 187.599 45.2171C187.564 45.0785 187.485 44.9548 187.375 44.8643C187.264 44.7738 187.127 44.7213 186.985 44.7146C186.273 44.6867 185.421 44.3983 185.365 43.5328C185.319 42.8505 185.406 42.2952 185.626 41.8672C185.7 41.7276 185.811 41.6237 185.956 41.5554L187.455 40.8762C187.603 40.8079 187.69 40.6931 187.715 40.5319C188.245 37.2129 189.772 34.4554 192.293 32.2593C195.395 29.8027 198.953 28.9078 202.967 29.5747C205.755 30.0338 208.13 31.2668 210.09 33.2736ZM211.081 42.6209C211.081 39.8667 209.987 37.2253 208.039 35.2777C206.092 33.3302 203.45 32.2361 200.696 32.2361C197.942 32.2361 195.3 33.3302 193.353 35.2777C191.405 37.2253 190.311 39.8667 190.311 42.6209C190.311 45.3752 191.405 48.0166 193.353 49.9641C195.3 51.9117 197.942 53.0058 200.696 53.0058C203.45 53.0058 206.092 51.9117 208.039 49.9641C209.987 48.0166 211.081 45.3752 211.081 42.6209ZM237.639 42.6163C237.639 39.867 236.546 37.2303 234.602 35.2862C232.658 33.3422 230.022 32.25 227.272 32.25C224.523 32.25 221.886 33.3422 219.942 35.2862C217.998 37.2303 216.906 39.867 216.906 42.6163C216.906 43.9776 217.174 45.3256 217.695 46.5833C218.216 47.8409 218.98 48.9837 219.942 49.9463C220.905 50.9089 222.048 51.6725 223.305 52.1934C224.563 52.7144 225.911 52.9825 227.272 52.9825C228.634 52.9825 229.982 52.7144 231.239 52.1934C232.497 51.6725 233.64 50.9089 234.602 49.9463C235.565 48.9837 236.329 47.8409 236.85 46.5833C237.37 45.3256 237.639 43.9776 237.639 42.6163ZM188.873 42.3816C188.944 42.3264 189 42.254 189.039 42.1686C189.077 42.0831 189.098 41.9862 189.098 41.8834C189.099 41.7807 189.079 41.674 189.042 41.5696C189.004 41.4652 188.948 41.3651 188.878 41.2749C188.808 41.1847 188.725 41.1063 188.633 41.0441C188.541 40.982 188.442 40.9372 188.342 40.9125C188.242 40.8877 188.144 40.8835 188.051 40.9C187.959 40.9164 187.875 40.9533 187.804 41.0085C187.733 41.0636 187.677 41.136 187.638 41.2215C187.6 41.307 187.579 41.4039 187.579 41.5066C187.578 41.6094 187.598 41.716 187.635 41.8204C187.673 41.9249 187.729 42.025 187.799 42.1152C187.869 42.2053 187.952 42.2837 188.044 42.3459C188.136 42.4081 188.235 42.4529 188.335 42.4776C188.435 42.5023 188.533 42.5066 188.626 42.4901C188.718 42.4736 188.802 42.4368 188.873 42.3816ZM239.988 41.6113C239.988 41.4114 239.909 41.2197 239.767 41.0783C239.626 40.937 239.434 40.8575 239.235 40.8575C239.035 40.8575 238.843 40.937 238.702 41.0783C238.56 41.2197 238.481 41.4114 238.481 41.6113C238.481 41.8112 238.56 42.0029 238.702 42.1443C238.843 42.2856 239.035 42.365 239.235 42.365C239.434 42.365 239.626 42.2856 239.767 42.1443C239.909 42.0029 239.988 41.8112 239.988 41.6113ZM213.747 43.5142H213.924C213.973 43.5111 214 43.4832 214.003 43.4305L214.017 41.5508C214.02 41.4515 213.972 41.4019 213.873 41.4019H213.71C213.632 41.4019 213.593 41.4422 213.593 41.5229L213.635 43.4072C213.635 43.4817 213.673 43.5173 213.747 43.5142ZM211.374 50.4514C209.504 52.9267 207.118 54.5489 204.218 55.3182C203.303 55.5601 202.38 55.7648 201.45 55.9323C201.227 55.9726 201.22 56.0331 201.431 56.1138C203.855 57.0443 206.154 58.0865 208.824 58.5239C209.972 58.7131 211.132 58.9256 212.305 59.1613C213.229 59.3505 214.268 59.3645 215.422 59.2032C219.16 58.6759 222.765 57.6523 226.239 56.1324C226.587 55.9804 226.573 55.8858 226.198 55.8486C223.949 55.6097 221.804 54.8762 219.763 53.6478C218.353 52.8057 217.395 51.5169 216.376 50.1816C216.177 49.2014 216.019 48.5423 215.901 48.2042C215.496 47.027 214.063 45.045 212.789 46.4036C211.706 47.5574 211.235 48.9067 211.374 50.4514Z" fill="#495057"/>
<path d="M192.028 69.6531C193.596 74.5292 195.904 79.5681 198.579 83.8393C198.629 83.9137 198.61 83.9649 198.523 83.9928C198.483 84.0052 198.444 84.0067 198.407 83.9974C198.367 83.9881 198.333 83.968 198.305 83.937C197.269 82.8327 196.237 81.7347 195.211 80.6428C191.746 76.9548 189.12 72.969 187.334 68.6854C185.524 64.3444 185.756 58.3982 190.046 55.3554C190.063 55.3443 190.083 55.3382 190.104 55.3376C190.124 55.337 190.144 55.342 190.162 55.3521C190.18 55.3621 190.194 55.3769 190.204 55.3947C190.214 55.4125 190.219 55.4327 190.218 55.4531C189.936 60.2919 190.539 65.0252 192.028 69.6531Z" fill="#A39077"/>
<path d="M229.329 83.4438C231.311 80.1031 232.972 76.5578 234.405 72.9799C236.62 67.4431 237.978 61.3016 237.387 55.5462C237.383 55.5048 237.391 55.4631 237.409 55.4261C237.428 55.3891 237.457 55.3583 237.493 55.3376C237.529 55.3169 237.571 55.3071 237.612 55.3094C237.654 55.3118 237.694 55.3261 237.727 55.3507C241.798 58.3052 242.077 63.8792 240.379 68.3644C238.113 74.3524 234.061 78.8934 229.622 83.588C229.557 83.6563 229.481 83.6733 229.394 83.6392C229.298 83.5989 229.276 83.5337 229.329 83.4438Z" fill="#A39077"/>
<path d="M216.376 50.1816C216.174 50.8671 215.982 51.5184 215.799 52.1357C215.507 53.1283 214.871 53.7502 213.891 54.0014C213.739 54.0418 213.592 54.0293 213.449 53.9642C212.143 53.3904 211.452 52.2194 211.374 50.4514C211.235 48.9067 211.706 47.5574 212.789 46.4036C214.063 45.045 215.496 47.027 215.901 48.2042C216.019 48.5423 216.177 49.2014 216.376 50.1816Z" fill="#A39077"/>
<path d="M210.355 42.7465C210.355 45.0491 209.44 47.2574 207.812 48.8856C206.184 50.5138 203.976 51.4285 201.673 51.4285C199.371 51.4285 197.162 50.5138 195.534 48.8856C193.906 47.2574 192.991 45.0491 192.991 42.7465C192.991 40.4439 193.906 38.2356 195.534 36.6075C197.162 34.9793 199.371 34.0646 201.673 34.0646C203.976 34.0646 206.184 34.9793 207.812 36.6075C209.44 38.2356 210.355 40.4439 210.355 42.7465ZM208.578 40.9878C208.578 39.6156 208.033 38.2996 207.062 37.3294C206.092 36.3591 204.776 35.814 203.404 35.814C202.725 35.814 202.052 35.9478 201.424 36.2078C200.796 36.4678 200.226 36.8489 199.746 37.3294C199.265 37.8098 198.884 38.3802 198.624 39.0079C198.364 39.6356 198.23 40.3084 198.23 40.9878C198.23 41.6672 198.364 42.34 198.624 42.9677C198.884 43.5955 199.265 44.1658 199.746 44.6462C200.226 45.1267 200.796 45.5078 201.424 45.7678C202.052 46.0278 202.725 46.1616 203.404 46.1616C204.776 46.1616 206.092 45.6165 207.062 44.6462C208.033 43.676 208.578 42.36 208.578 40.9878Z" fill="#A39077"/>
<path d="M234.68 42.7372C234.68 45.0423 233.764 47.2529 232.134 48.8829C230.504 50.5128 228.293 51.4285 225.988 51.4285C223.683 51.4285 221.473 50.5128 219.843 48.8829C218.213 47.2529 217.297 45.0423 217.297 42.7372C217.297 40.4322 218.213 38.2215 219.843 36.5916C221.473 34.9616 223.683 34.046 225.988 34.046C228.293 34.046 230.504 34.9616 232.134 36.5916C233.764 38.2215 234.68 40.4322 234.68 42.7372ZM229.403 40.9925C229.403 39.6203 228.858 38.3043 227.888 37.334C226.918 36.3637 225.602 35.8186 224.23 35.8186C222.857 35.8186 221.541 36.3637 220.571 37.334C219.601 38.3043 219.056 39.6203 219.056 40.9925C219.056 42.3646 219.601 43.6806 220.571 44.6509C221.541 45.6212 222.857 46.1663 224.23 46.1663C225.602 46.1663 226.918 45.6212 227.888 44.6509C228.858 43.6806 229.403 42.3646 229.403 40.9925Z" fill="#A39077"/>
<path d="M205.135 38.2055C203.958 39.2244 205.051 41.2112 206.647 40.49C206.811 40.4124 206.901 40.4652 206.917 40.6482C207.022 41.8951 206.628 42.8768 205.735 43.5933C204.144 44.8728 201.236 44.7379 200.375 42.5744C199.1 39.3594 201.78 36.484 205.088 37.8984C205.268 37.976 205.284 38.0783 205.135 38.2055Z" fill="#495057"/>
<path d="M225.858 38.3079C224.858 39.6711 226.011 41.1972 227.482 40.4435C227.512 40.4275 227.546 40.4196 227.581 40.4206C227.615 40.4216 227.649 40.4315 227.678 40.4493C227.708 40.4671 227.732 40.4921 227.749 40.5221C227.766 40.552 227.775 40.5859 227.775 40.6203C227.807 42.8862 226.319 44.4867 224.029 44.3983C218.697 44.1936 220.633 35.5349 225.742 37.8752C225.781 37.8935 225.815 37.9201 225.843 37.953C225.871 37.986 225.891 38.0245 225.902 38.0658C225.913 38.1071 225.915 38.1503 225.907 38.1921C225.9 38.234 225.883 38.2735 225.858 38.3079Z" fill="#495057"/>
</g>
<defs>
<clipPath id="clip0_99107_104">
<rect width="319.834" height="77" fill="white"/>
</clipPath>
</defs>
</svg>
