<svg width="58" height="56" viewBox="0 0 58 56" fill="none" xmlns="http://www.w3.org/2000/svg">
<path d="M50.489 11.1523C47.3841 8.79807 43.8713 7.93731 39.9507 8.57008C37.3731 8.98572 35.1025 10.1194 33.1391 11.9712C31.4796 12.9483 30.1024 14.2355 29.0075 15.833C28.9815 15.8713 28.9465 15.9028 28.9055 15.9245C28.8645 15.9462 28.8189 15.9576 28.7725 15.9576C28.7262 15.9576 28.6805 15.9462 28.6395 15.9245C28.5986 15.9028 28.5636 15.8713 28.5376 15.833C27.6008 14.4558 26.4516 13.2693 25.0899 12.2736C23.1296 10.2668 20.7551 9.0338 17.9666 8.57473C13.9529 7.90784 10.3951 8.80272 7.29329 11.2593C5.59505 9.73791 4.01779 7.43482 3.87356 5.07124C3.86115 4.88203 3.94179 4.8231 4.11549 4.89444C7.40961 6.22046 10.834 5.62492 14.1328 4.15001C16.5522 3.07523 18.9297 2.00046 21.4794 1.33977C27.0378 -0.0932607 32.4148 0.0509734 37.6103 1.77248C39.1457 2.28117 40.5633 2.84725 41.8629 3.47072C43.786 4.39195 45.2361 4.98129 46.2132 5.23874C48.6605 5.88082 50.9931 5.78466 53.2109 4.95028C53.2952 4.91761 53.387 4.90945 53.4757 4.92671C53.5644 4.94398 53.6466 4.98598 53.713 5.04797C53.7793 5.10995 53.8271 5.18943 53.8511 5.27742C53.875 5.36541 53.874 5.45839 53.8483 5.54582C53.2031 7.70158 52.0834 9.57042 50.489 11.1523Z" fill="#A39077"/>
<path d="M25.0899 12.2736C26.8394 14.3053 28.0537 16.6193 28.733 19.2155C28.7516 19.2837 28.7454 19.3473 28.7144 19.4062C28.7051 19.4217 28.702 19.4388 28.7051 19.4574C28.733 19.6683 28.7919 19.6792 28.8819 19.49C30.1847 16.6984 30.7755 14.5441 33.1391 11.9712C35.1026 10.1194 37.3731 8.98571 39.9507 8.57007C43.8714 7.9373 47.3842 8.79806 50.4891 11.1523C52.4386 12.8738 53.9926 15.1118 54.7044 17.6382C55.0177 18.7455 55.6536 19.6683 56.612 20.4066C57.2913 20.9323 57.4961 21.7791 57.3053 22.5747C57.2526 22.7949 57.1254 22.9578 56.9238 23.0633L55.4954 23.831C55.3988 23.8828 55.3157 23.9565 55.2527 24.0461C55.1897 24.1358 55.1485 24.239 55.1325 24.3474C54.6796 27.412 53.0201 30.0671 50.1541 32.3128C50.0294 32.4101 49.9282 32.5343 49.8581 32.676C49.788 32.8178 49.7508 32.9736 49.7493 33.1317C49.6469 41.6508 47.6882 50.4351 43.3891 57.698C39.0667 65.0028 31.0314 70.9117 22.4425 66.1101C19.4865 64.4569 16.9322 61.9134 14.7795 58.4797C9.86627 50.6445 8.04707 42.2464 7.9354 32.6804C7.9323 32.5346 7.87492 32.4168 7.76326 32.3268C5.11742 30.171 3.39591 27.4678 2.59875 24.2171C2.56392 24.0785 2.48539 23.9548 2.37478 23.8643C2.26417 23.7738 2.12735 23.7213 1.98459 23.7146C1.27272 23.6867 0.421277 23.3983 0.365444 22.5328C0.318917 21.8505 0.405767 21.2952 0.625995 20.8672C0.700438 20.7276 0.810556 20.6237 0.95634 20.5554L2.45451 19.8762C2.6034 19.8079 2.69025 19.6931 2.71506 19.5319C3.24547 16.2129 4.77156 13.4554 7.29333 11.2593C10.3951 8.80271 13.9529 7.90783 17.9666 8.57472C20.7552 9.03379 23.1296 10.2668 25.0899 12.2736ZM26.081 21.6209C26.081 18.8667 24.9869 16.2253 23.0393 14.2777C21.0918 12.3302 18.4504 11.2361 15.6961 11.2361C12.9419 11.2361 10.3005 12.3302 8.35292 14.2777C6.40539 16.2253 5.31128 18.8667 5.31128 21.6209C5.31128 24.3752 6.40539 27.0166 8.35292 28.9641C10.3005 30.9117 12.9419 32.0058 15.6961 32.0058C18.4504 32.0058 21.0918 30.9117 23.0393 28.9641C24.9869 27.0166 26.081 24.3752 26.081 21.6209ZM52.6386 21.6163C52.6386 18.867 51.5465 16.2303 49.6024 14.2862C47.6584 12.3422 45.0217 11.25 42.2724 11.25C39.5231 11.25 36.8864 12.3422 34.9424 14.2862C32.9983 16.2303 31.9062 18.867 31.9062 21.6163C31.9062 22.9776 32.1743 24.3256 32.6952 25.5833C33.2162 26.8409 33.9798 27.9837 34.9424 28.9463C35.905 29.9089 37.0477 30.6725 38.3054 31.1934C39.5631 31.7144 40.9111 31.9825 42.2724 31.9825C43.6337 31.9825 44.9817 31.7144 46.2394 31.1934C47.4971 30.6725 48.6398 29.9089 49.6024 28.9463C50.565 27.9837 51.3286 26.8409 51.8495 25.5833C52.3705 24.3256 52.6386 22.9776 52.6386 21.6163ZM3.87298 21.3816C3.94386 21.3264 4.00022 21.254 4.03885 21.1686C4.07747 21.0831 4.0976 20.9862 4.09808 20.8834C4.09857 20.7807 4.07941 20.674 4.04169 20.5696C4.00396 20.4652 3.94843 20.3651 3.87824 20.2749C3.80805 20.1847 3.7246 20.1063 3.63263 20.0441C3.54066 19.982 3.44198 19.9372 3.34224 19.9125C3.24249 19.8877 3.14363 19.8835 3.05129 19.9C2.95895 19.9164 2.87494 19.9533 2.80407 20.0085C2.73319 20.0636 2.67683 20.136 2.63821 20.2215C2.59959 20.307 2.57946 20.4039 2.57897 20.5066C2.57848 20.6094 2.59764 20.716 2.63537 20.8204C2.67309 20.9249 2.72862 21.025 2.79881 21.1152C2.869 21.2053 2.95246 21.2837 3.04443 21.3459C3.1364 21.4081 3.23507 21.4529 3.33481 21.4776C3.43456 21.5023 3.53342 21.5066 3.62576 21.4901C3.7181 21.4736 3.80211 21.4368 3.87298 21.3816ZM54.9883 20.6113C54.9883 20.4114 54.9088 20.2197 54.7675 20.0783C54.6261 19.937 54.4344 19.8575 54.2345 19.8575C54.0346 19.8575 53.8429 19.937 53.7015 20.0783C53.5602 20.2197 53.4808 20.4114 53.4808 20.6113C53.4808 20.8112 53.5602 21.0029 53.7015 21.1443C53.8429 21.2856 54.0346 21.365 54.2345 21.365C54.4344 21.365 54.6261 21.2856 54.7675 21.1443C54.9088 21.0029 54.9883 20.8112 54.9883 20.6113ZM28.747 22.5142H28.9238C28.9734 22.5111 28.9998 22.4832 29.0029 22.4305L29.0168 20.5508C29.0199 20.4515 28.9719 20.4019 28.8726 20.4019H28.7097C28.6322 20.4019 28.5934 20.4422 28.5934 20.5229L28.6353 22.4072C28.6353 22.4817 28.6725 22.5173 28.747 22.5142ZM26.3741 29.4514C24.5037 31.9267 22.1184 33.5489 19.2182 34.3182C18.3032 34.5601 17.3804 34.7648 16.4499 34.9323C16.2265 34.9726 16.2203 35.0331 16.4312 35.1138C18.8553 36.0443 21.1537 37.0865 23.8244 37.5239C24.9721 37.7131 26.1322 37.9256 27.3046 38.1613C28.229 38.3505 29.2681 38.3645 30.4219 38.2032C34.1596 37.6759 37.7655 36.6523 41.2395 35.1324C41.5869 34.9804 41.5729 34.8858 41.1976 34.8486C38.9488 34.6097 36.8039 33.8762 34.7629 32.6478C33.3532 31.8057 32.3947 30.5169 31.3758 29.1816C31.1772 28.2014 31.019 27.5423 30.9012 27.2042C30.4964 26.027 29.0634 24.045 27.7885 25.4036C26.706 26.5574 26.2345 27.9067 26.3741 29.4514Z" fill="#495057"/>
<path d="M7.02818 48.6531C8.59614 53.5292 10.9039 58.5681 13.5792 62.8393C13.6288 62.9137 13.6102 62.9649 13.5234 62.9928C13.483 63.0052 13.4443 63.0067 13.407 62.9974C13.3667 62.9881 13.3326 62.968 13.3047 62.937C12.2687 61.8327 11.2373 60.7347 10.2106 59.6428C6.74592 55.9548 4.12023 51.969 2.33359 47.6854C0.52369 43.3444 0.756326 37.3982 5.04612 34.3554C5.06326 34.3443 5.08311 34.3382 5.1035 34.3376C5.12389 34.337 5.14405 34.342 5.1618 34.3521C5.17954 34.3621 5.19418 34.3769 5.20414 34.3947C5.21409 34.4125 5.21899 34.4327 5.21828 34.4531C4.93601 39.2919 5.53932 44.0252 7.02818 48.6531Z" fill="#A39077"/>
<path d="M44.3289 62.4438C46.311 59.1031 47.972 55.5578 49.405 51.9799C51.6197 46.4431 52.9783 40.3016 52.3874 34.5462C52.3829 34.5048 52.3906 34.4631 52.4094 34.4261C52.4282 34.3891 52.4574 34.3583 52.4935 34.3376C52.5295 34.3169 52.5707 34.3071 52.6122 34.3094C52.6537 34.3118 52.6936 34.3261 52.7271 34.3507C56.7982 37.3052 57.0773 42.8792 55.3791 47.3644C53.1132 53.3524 49.0607 57.8934 44.622 62.588C44.5569 62.6563 44.4809 62.6733 44.394 62.6392C44.2979 62.5989 44.2762 62.5337 44.3289 62.4438Z" fill="#A39077"/>
<path d="M31.3758 29.1816C31.1742 29.8671 30.9819 30.5184 30.7989 31.1357C30.5073 32.1283 29.8714 32.7502 28.8912 33.0014C28.7393 33.0418 28.5919 33.0293 28.4492 32.9642C27.1434 32.3904 26.4517 31.2194 26.3741 29.4514C26.2346 27.9067 26.706 26.5574 27.7886 25.4036C29.0634 24.045 30.4964 26.027 30.9012 27.2042C31.0191 27.5423 31.1773 28.2014 31.3758 29.1816Z" fill="#A39077"/>
<path d="M25.3551 21.7465C25.3551 24.0491 24.4404 26.2574 22.8122 27.8856C21.1841 29.5138 18.9758 30.4285 16.6732 30.4285C14.3706 30.4285 12.1623 29.5138 10.5341 27.8856C8.90592 26.2574 7.99121 24.0491 7.99121 21.7465C7.99121 19.4439 8.90592 17.2356 10.5341 15.6075C12.1623 13.9793 14.3706 13.0646 16.6732 13.0646C18.9758 13.0646 21.1841 13.9793 22.8122 15.6075C24.4404 17.2356 25.3551 19.4439 25.3551 21.7465ZM23.5778 19.9878C23.5778 18.6156 23.0327 17.2996 22.0624 16.3294C21.0921 15.3591 19.7762 14.814 18.404 14.814C17.7245 14.814 17.0518 14.9478 16.424 15.2078C15.7963 15.4678 15.226 15.8489 14.7455 16.3294C14.2651 16.8098 13.884 17.3802 13.624 18.0079C13.364 18.6356 13.2302 19.3084 13.2302 19.9878C13.2302 20.6672 13.364 21.34 13.624 21.9677C13.884 22.5955 14.2651 23.1658 14.7455 23.6462C15.226 24.1267 15.7963 24.5078 16.424 24.7678C17.0518 25.0278 17.7245 25.1616 18.404 25.1616C19.7762 25.1616 21.0921 24.6165 22.0624 23.6462C23.0327 22.676 23.5778 21.36 23.5778 19.9878Z" fill="#A39077"/>
<path d="M49.6795 21.7372C49.6795 24.0423 48.7638 26.2529 47.1339 27.8829C45.504 29.5128 43.2933 30.4285 40.9883 30.4285C38.6832 30.4285 36.4725 29.5128 34.8426 27.8829C33.2127 26.2529 32.297 24.0423 32.297 21.7372C32.297 19.4322 33.2127 17.2215 34.8426 15.5916C36.4725 13.9616 38.6832 13.046 40.9883 13.046C43.2933 13.046 45.504 13.9616 47.1339 15.5916C48.7638 17.2215 49.6795 19.4322 49.6795 21.7372ZM44.4034 19.9925C44.4034 18.6203 43.8583 17.3043 42.888 16.334C41.9177 15.3637 40.6017 14.8186 39.2295 14.8186C37.8574 14.8186 36.5414 15.3637 35.5711 16.334C34.6008 17.3043 34.0557 18.6203 34.0557 19.9925C34.0557 21.3646 34.6008 22.6806 35.5711 23.6509C36.5414 24.6212 37.8574 25.1663 39.2295 25.1663C40.6017 25.1663 41.9177 24.6212 42.888 23.6509C43.8583 22.6806 44.4034 21.3646 44.4034 19.9925Z" fill="#A39077"/>
<path d="M20.1348 17.2055C18.9576 18.2244 20.051 20.2112 21.6469 19.49C21.8113 19.4124 21.9013 19.4652 21.9168 19.6482C22.0222 20.8951 21.6283 21.8768 20.735 22.5933C19.1438 23.8728 16.2358 23.7379 15.3751 21.5744C14.1002 18.3594 16.7802 15.484 20.0883 16.8984C20.2682 16.976 20.2837 17.0783 20.1348 17.2055Z" fill="#495057"/>
<path d="M40.858 17.3079C39.8576 18.6711 41.0115 20.1972 42.4817 19.4435C42.5122 19.4275 42.5463 19.4196 42.5807 19.4206C42.6151 19.4216 42.6487 19.4315 42.6781 19.4493C42.7076 19.4671 42.732 19.4921 42.7489 19.5221C42.7659 19.552 42.7748 19.5859 42.7749 19.6203C42.8074 21.8862 41.3186 23.4867 39.0294 23.3983C33.6974 23.1936 35.633 14.5349 40.7416 16.8752C40.7807 16.8935 40.8153 16.9201 40.843 16.953C40.8707 16.986 40.8909 17.0245 40.902 17.0658C40.9131 17.1071 40.9149 17.1503 40.9073 17.1921C40.8997 17.234 40.8828 17.2735 40.858 17.3079Z" fill="#495057"/>
</svg>
